<svg xmlns="http://www.w3.org/2000/svg" width="1280" height="720" viewBox="0 0 1280 720">
<defs><marker id="arrow" markerWidth="10" markerHeight="10" refX="8" refY="3" orient="auto" markerUnits="strokeWidth"><path d="M0,0 L0,6 L8,3 z" fill="#111"/></marker><style>
  .frame{fill:#fff;stroke:#111;stroke-width:2.2}
  .top{fill:#f8f8f8;stroke:#d9d9d9;stroke-width:1.4}
  .panel{fill:#fff;stroke:#111;stroke-width:1.7}
  .soft{fill:#f7f7f7;stroke:#d9d9d9;stroke-width:1.2}
  .thin{fill:#fff;stroke:#cfcfcf;stroke-width:1.2}
  .black{fill:#111;stroke:#111;stroke-width:1.5}
  .ink{fill:#111}
  .muted{fill:#666}
  .line{stroke:#111;stroke-width:1.8;fill:none;stroke-linecap:round;stroke-linejoin:round}
  .softline{stroke:#bdbdbd;stroke-width:1.4;fill:none;stroke-linecap:round;stroke-linejoin:round}
  .dash{stroke:#999;stroke-width:1.3;fill:none;stroke-dasharray:6 6}
  .title{font:700 27px -apple-system,BlinkMacSystemFont,"Segoe UI",Arial,sans-serif;fill:#111}
  .sub{font:500 13px -apple-system,BlinkMacSystemFont,"Segoe UI",Arial,sans-serif;fill:#666}
  .h{font:700 18px -apple-system,BlinkMacSystemFont,"Segoe UI",Arial,sans-serif;fill:#111}
  .m{font:650 15px -apple-system,BlinkMacSystemFont,"Segoe UI",Arial,sans-serif;fill:#111}
  .xs{font:600 12.5px -apple-system,BlinkMacSystemFont,"Segoe UI",Arial,sans-serif;fill:#666}
  .tiny{font:600 10.5px -apple-system,BlinkMacSystemFont,"Segoe UI",Arial,sans-serif;fill:#777}
  .white{font:700 12px -apple-system,BlinkMacSystemFont,"Segoe UI",Arial,sans-serif;fill:#fff}
</style></defs>
<rect width="1280" height="720" fill="#fff"/>
<rect x="32" y="32" width="1216" height="656" rx="24" class="frame"/>
<rect x="32" y="32" width="1216" height="70" rx="24" class="top"/>
<path d="M32 78 H1248" class="softline"/>
<circle cx="62" cy="66" r="7" fill="#111"/><circle cx="86" cy="66" r="7" fill="#8f8f8f"/><circle cx="110" cy="66" r="7" fill="#d0d0d0"/>
<text x="152" y="62" class="title">Waxis Supply Chain &amp; Inventory Automation</text><text x="152" y="84" class="sub">AI planning architecture for ERP, WMS, supplier, order, and forecast data.</text>
<rect x="72" y="132" width="250" height="462" rx="22" class="panel"/><text x="104" y="172" class="h">Operational Data Mesh</text><rect x="104" y="210" width="142" height="28" rx="14.0" class="thin"/><text x="175.0" y="228.0" class="xs" text-anchor="middle">ERP orders</text><rect x="104" y="254" width="142" height="28" rx="14.0" class="black"/><text x="175.0" y="272.0" class="white" text-anchor="middle">WMS inventory</text><rect x="104" y="298" width="142" height="28" rx="14.0" class="thin"/><text x="175.0" y="316.0" class="xs" text-anchor="middle">TMS shipments</text><rect x="104" y="342" width="142" height="28" rx="14.0" class="thin"/><text x="175.0" y="360.0" class="xs" text-anchor="middle">supplier EDI</text><rect x="104" y="386" width="142" height="28" rx="14.0" class="thin"/><text x="175.0" y="404.0" class="xs" text-anchor="middle">forecast files</text><rect x="104" y="430" width="142" height="28" rx="14.0" class="thin"/><text x="175.0" y="448.0" class="xs" text-anchor="middle">promotions</text><rect x="104" y="474" width="142" height="28" rx="14.0" class="thin"/><text x="175.0" y="492.0" class="xs" text-anchor="middle">finance targets</text><rect x="420" y="154" width="360" height="396" rx="28" class="soft"/><text x="460" y="196" class="h">Planning Intelligence Core</text><path d="M480 240 L624 240" class="softline"/><path d="M480 240 L480 340" class="softline"/><path d="M624 240 L624 340" class="softline"/><path d="M480 340 L552 450" class="softline"/><path d="M624 340 L552 450" class="softline"/><circle cx="480" cy="240" r="48" class="thin"/><text x="480" y="245" class="tiny" text-anchor="middle">demand sensing</text><circle cx="624" cy="240" r="48" class="thin"/><text x="624" y="245" class="tiny" text-anchor="middle">inventory policy</text><circle cx="480" cy="340" r="48" class="thin"/><text x="480" y="345" class="tiny" text-anchor="middle">supplier risk</text><circle cx="624" cy="340" r="48" class="black"/><text x="624" y="345" class="white" text-anchor="middle">scenario solver</text><circle cx="552" cy="450" r="48" class="thin"/><text x="552" y="455" class="tiny" text-anchor="middle">planner assistant</text><path d="M322 220 C366 220 366 352 420 352" class="line" marker-end="url(#arrow)"/><path d="M322 300 C366 300 366 352 420 352" class="line" marker-end="url(#arrow)"/><path d="M322 380 C366 380 366 352 420 352" class="line" marker-end="url(#arrow)"/><path d="M322 460 C366 460 366 352 420 352" class="line" marker-end="url(#arrow)"/><rect x="888" y="132" width="284" height="462" rx="22" class="panel"/><text x="920" y="172" class="h">Execution Systems</text><rect x="920" y="212" width="168" height="30" rx="15.0" class="black"/><text x="1004.0" y="231.0" class="white" text-anchor="middle">purchase orders</text><rect x="920" y="266" width="168" height="30" rx="15.0" class="thin"/><text x="1004.0" y="285.0" class="xs" text-anchor="middle">transfer orders</text><rect x="920" y="320" width="168" height="30" rx="15.0" class="thin"/><text x="1004.0" y="339.0" class="xs" text-anchor="middle">planner tasks</text><rect x="920" y="374" width="168" height="30" rx="15.0" class="thin"/><text x="1004.0" y="393.0" class="xs" text-anchor="middle">supplier messages</text><rect x="920" y="428" width="168" height="30" rx="15.0" class="thin"/><text x="1004.0" y="447.0" class="xs" text-anchor="middle">warehouse alerts</text><rect x="920" y="482" width="168" height="30" rx="15.0" class="thin"/><text x="1004.0" y="501.0" class="xs" text-anchor="middle">cash reports</text><path d="M780 240 C830 240 830 352 888 352" class="line" marker-end="url(#arrow)"/><path d="M780 340 C830 340 830 352 888 352" class="line" marker-end="url(#arrow)"/><path d="M780 450 C830 450 830 352 888 352" class="line" marker-end="url(#arrow)"/><rect x="124" y="626" width="992" height="38" rx="19" class="panel"/><text x="156" y="651" class="m">Control policy: approval state / service-level target / lead-time variance / working-capital guardrail / audit event</text>
</svg>