<svg xmlns="http://www.w3.org/2000/svg" width="1280" height="720" viewBox="0 0 1280 720">
<defs><marker id="arrow" markerWidth="10" markerHeight="10" refX="8" refY="3" orient="auto" markerUnits="strokeWidth"><path d="M0,0 L0,6 L8,3 z" fill="#111"/></marker><style>
  .frame{fill:#fff;stroke:#111;stroke-width:2.2}
  .top{fill:#f8f8f8;stroke:#d9d9d9;stroke-width:1.4}
  .panel{fill:#fff;stroke:#111;stroke-width:1.7}
  .soft{fill:#f7f7f7;stroke:#d9d9d9;stroke-width:1.2}
  .thin{fill:#fff;stroke:#cfcfcf;stroke-width:1.2}
  .black{fill:#111;stroke:#111;stroke-width:1.5}
  .ink{fill:#111}
  .muted{fill:#666}
  .line{stroke:#111;stroke-width:1.8;fill:none;stroke-linecap:round;stroke-linejoin:round}
  .softline{stroke:#bdbdbd;stroke-width:1.4;fill:none;stroke-linecap:round;stroke-linejoin:round}
  .dash{stroke:#999;stroke-width:1.3;fill:none;stroke-dasharray:6 6}
  .title{font:700 27px -apple-system,BlinkMacSystemFont,"Segoe UI",Arial,sans-serif;fill:#111}
  .sub{font:500 13px -apple-system,BlinkMacSystemFont,"Segoe UI",Arial,sans-serif;fill:#666}
  .h{font:700 18px -apple-system,BlinkMacSystemFont,"Segoe UI",Arial,sans-serif;fill:#111}
  .m{font:650 15px -apple-system,BlinkMacSystemFont,"Segoe UI",Arial,sans-serif;fill:#111}
  .xs{font:600 12.5px -apple-system,BlinkMacSystemFont,"Segoe UI",Arial,sans-serif;fill:#666}
  .tiny{font:600 10.5px -apple-system,BlinkMacSystemFont,"Segoe UI",Arial,sans-serif;fill:#777}
  .white{font:700 12px -apple-system,BlinkMacSystemFont,"Segoe UI",Arial,sans-serif;fill:#fff}
</style></defs>
<rect width="1280" height="720" fill="#fff"/>
<rect x="32" y="32" width="1216" height="656" rx="24" class="frame"/>
<rect x="32" y="32" width="1216" height="70" rx="24" class="top"/>
<path d="M32 78 H1248" class="softline"/>
<circle cx="62" cy="66" r="7" fill="#111"/><circle cx="86" cy="66" r="7" fill="#8f8f8f"/><circle cx="110" cy="66" r="7" fill="#d0d0d0"/>
<text x="152" y="62" class="title">Waxis Supply Chain &amp; Inventory Automation</text><text x="152" y="84" class="sub">Exception control tower for inventory health, replenishment, supplier risk, and approvals.</text>
<text x="76" y="138" class="h">Exception Control Tower</text><text x="76" y="160" class="sub">Planner view that joins SKU risk, supplier events, warehouse constraints, and approved actions.</text><rect x="76" y="190" width="346" height="260" rx="20" class="panel"/><text x="104" y="228" class="h">Network Map</text><circle cx="150" cy="320" r="28" class="black"/><text x="150" y="325" class="white" text-anchor="middle">WH-1</text><circle cx="250" cy="260" r="22" class="thin"/><text x="250" y="265" class="tiny" text-anchor="middle">SUP</text><circle cx="330" cy="342" r="24" class="thin"/><text x="330" y="347" class="tiny" text-anchor="middle">DC</text><circle cx="210" cy="390" r="18" class="thin"/><text x="210" y="395" class="tiny" text-anchor="middle">STO</text><path d="M150 320 L250 260" class="softline"/><path d="M250 260 L330 342" class="softline"/><path d="M150 320 L330 342" class="softline"/><path d="M150 320 L210 390" class="softline"/><rect x="470" y="190" width="360" height="260" rx="20" class="panel"/><text x="498" y="228" class="h">Replenishment Board</text><rect x="498" y="258" width="278" height="30" rx="8" class="thin"/><text x="516" y="278" class="tiny">SKU-1842 / Toronto</text><circle cx="792" cy="273" r="7" class="black"/><rect x="498" y="300" width="278" height="30" rx="8" class="thin"/><text x="516" y="320" class="tiny">SKU-7711 / Calgary</text><circle cx="792" cy="315" r="7" class="thin"/><rect x="498" y="342" width="278" height="30" rx="8" class="thin"/><text x="516" y="362" class="tiny">SKU-0930 / Vancouver</text><circle cx="792" cy="357" r="7" class="thin"/><rect x="498" y="384" width="278" height="30" rx="8" class="thin"/><text x="516" y="404" class="tiny">SKU-3310 / Montreal</text><circle cx="792" cy="399" r="7" class="black"/><rect x="876" y="190" width="296" height="260" rx="20" class="panel"/><text x="904" y="228" class="h">Scenario Simulator</text><text x="904" y="270" class="xs">Change reorder qty</text><rect x="904" y="288" width="220" height="8" rx="4" class="thin"/><rect x="904" y="288" width="142" height="8" rx="4" fill="#111"/><text x="904" y="330" class="xs">Projected impact</text><rect x="920" y="350" width="26" height="42" fill="#777" opacity="0.45"/><rect x="972" y="314" width="26" height="78" fill="#111" opacity="1"/><rect x="1024" y="366" width="26" height="26" fill="#777" opacity="0.45"/><rect x="1076" y="332" width="26" height="60" fill="#777" opacity="0.45"/><rect x="76" y="492" width="1096" height="126" rx="20" class="soft"/><text x="104" y="530" class="h">Planner Evidence Strip</text><rect x="316" y="520" width="112" height="28" rx="14.0" class="thin"/><text x="372.0" y="538.0" class="tiny" text-anchor="middle">forecast delta</text><rect x="448" y="520" width="112" height="28" rx="14.0" class="black"/><text x="504.0" y="538.0" class="white" text-anchor="middle">supplier ETA</text><rect x="580" y="520" width="112" height="28" rx="14.0" class="thin"/><text x="636.0" y="538.0" class="tiny" text-anchor="middle">inventory policy</text><rect x="712" y="520" width="112" height="28" rx="14.0" class="thin"/><text x="768.0" y="538.0" class="tiny" text-anchor="middle">substitute SKU</text><rect x="844" y="520" width="112" height="28" rx="14.0" class="thin"/><text x="900.0" y="538.0" class="tiny" text-anchor="middle">cash impact</text><rect x="976" y="520" width="112" height="28" rx="14.0" class="thin"/><text x="1032.0" y="538.0" class="tiny" text-anchor="middle">approval audit</text><path d="M422 320 C448 320 448 320 470 320" class="line" marker-end="url(#arrow)"/><path d="M830 320 C852 320 852 320 876 320" class="line" marker-end="url(#arrow)"/><path d="M650 450 L650 492" class="line" marker-end="url(#arrow)"/><rect x="76" y="642" width="1096" height="30" rx="15" class="soft"/><text x="104" y="662" class="tiny">The planner receives a recommendation with the exact evidence needed to approve, revise, or defer inventory action.</text>
</svg>